%TF.GenerationSoftware,KiCad,Pcbnew,(5.1.9)-1*%
%TF.CreationDate,2021-09-13T18:08:44-07:00*%
%TF.ProjectId,RemoteStartHack,52656d6f-7465-4537-9461-72744861636b,rev?*%
%TF.SameCoordinates,Original*%
%TF.FileFunction,Copper,L2,Bot*%
%TF.FilePolarity,Positive*%
%FSLAX46Y46*%
G04 Gerber Fmt 4.6, Leading zero omitted, Abs format (unit mm)*
G04 Created by KiCad (PCBNEW (5.1.9)-1) date 2021-09-13 18:08:44*
%MOMM*%
%LPD*%
G01*
G04 APERTURE LIST*
%TA.AperFunction,ComponentPad*%
%ADD10O,1.700000X1.700000*%
%TD*%
%TA.AperFunction,ComponentPad*%
%ADD11R,1.700000X1.700000*%
%TD*%
%TA.AperFunction,ComponentPad*%
%ADD12O,1.600000X1.600000*%
%TD*%
%TA.AperFunction,ComponentPad*%
%ADD13C,1.600000*%
%TD*%
%TA.AperFunction,ComponentPad*%
%ADD14R,1.050000X1.500000*%
%TD*%
%TA.AperFunction,ComponentPad*%
%ADD15O,1.050000X1.500000*%
%TD*%
%TA.AperFunction,ComponentPad*%
%ADD16C,1.200000*%
%TD*%
%TA.AperFunction,ComponentPad*%
%ADD17C,2.600000*%
%TD*%
%TA.AperFunction,ComponentPad*%
%ADD18R,2.600000X2.600000*%
%TD*%
%TA.AperFunction,Conductor*%
%ADD19C,0.250000*%
%TD*%
G04 APERTURE END LIST*
D10*
%TO.P,J1,2*%
%TO.N,Net-(J1-Pad2)*%
X177800000Y-81280000D03*
D11*
%TO.P,J1,1*%
%TO.N,Net-(J1-Pad1)*%
X180340000Y-81280000D03*
%TD*%
D10*
%TO.P,J5,3*%
%TO.N,Net-(J5-Pad3)*%
X208280000Y-72390000D03*
%TO.P,J5,2*%
%TO.N,Net-(J3-Pad1)*%
X208280000Y-69850000D03*
D11*
%TO.P,J5,1*%
%TO.N,Net-(J1-Pad2)*%
X208280000Y-67310000D03*
%TD*%
D12*
%TO.P,R2,2*%
%TO.N,GND*%
X185420000Y-73660000D03*
D13*
%TO.P,R2,1*%
%TO.N,Net-(Q1-Pad2)*%
X195580000Y-73660000D03*
%TD*%
D12*
%TO.P,R1,2*%
%TO.N,Net-(J2-Pad3)*%
X185600000Y-78190000D03*
D13*
%TO.P,R1,1*%
%TO.N,Net-(Q1-Pad2)*%
X195760000Y-78190000D03*
%TD*%
D14*
%TO.P,Q1,1*%
%TO.N,Net-(K1-Pad6)*%
X185420000Y-68580000D03*
D15*
%TO.P,Q1,3*%
%TO.N,GND*%
X187960000Y-68580000D03*
%TO.P,Q1,2*%
%TO.N,Net-(Q1-Pad2)*%
X186690000Y-68580000D03*
%TD*%
D16*
%TO.P,K1,14*%
%TO.N,Net-(J1-Pad2)*%
X201930000Y-91440000D03*
%TO.P,K1,13*%
%TO.N,N/C*%
X199390000Y-91440000D03*
%TO.P,K1,9*%
X189230000Y-91440000D03*
%TO.P,K1,8*%
%TO.N,Net-(J1-Pad1)*%
X186690000Y-91440000D03*
%TO.P,K1,7*%
X186690000Y-83820000D03*
%TO.P,K1,6*%
%TO.N,Net-(K1-Pad6)*%
X189230000Y-83820000D03*
%TO.P,K1,2*%
%TO.N,Net-(J5-Pad3)*%
X199390000Y-83820000D03*
%TO.P,K1,1*%
%TO.N,Net-(J1-Pad2)*%
X201930000Y-83820000D03*
%TD*%
D10*
%TO.P,J4,2*%
%TO.N,Net-(J1-Pad2)*%
X180340000Y-76200000D03*
D11*
%TO.P,J4,1*%
%TO.N,Net-(J1-Pad1)*%
X177800000Y-76200000D03*
%TD*%
D17*
%TO.P,J3,3*%
%TO.N,GND*%
X212090000Y-80010000D03*
%TO.P,J3,2*%
%TO.N,Net-(J2-Pad2)*%
X212090000Y-85090000D03*
D18*
%TO.P,J3,1*%
%TO.N,Net-(J3-Pad1)*%
X212090000Y-90170000D03*
%TD*%
D10*
%TO.P,J2,3*%
%TO.N,Net-(J2-Pad3)*%
X201930000Y-72390000D03*
%TO.P,J2,2*%
%TO.N,Net-(J2-Pad2)*%
X201930000Y-69850000D03*
D11*
%TO.P,J2,1*%
%TO.N,Net-(J1-Pad1)*%
X201930000Y-67310000D03*
%TD*%
D19*
%TO.N,Net-(J1-Pad2)*%
X201930000Y-91440000D02*
X201930000Y-83820000D01*
%TO.N,Net-(J1-Pad1)*%
X180340000Y-78740000D02*
X177800000Y-76200000D01*
X180340000Y-81280000D02*
X180340000Y-78740000D01*
X186690000Y-83820000D02*
X186690000Y-91440000D01*
X182880000Y-83820000D02*
X180340000Y-81280000D01*
X186690000Y-83820000D02*
X182880000Y-83820000D01*
X200660000Y-66040000D02*
X201930000Y-67310000D01*
X184150000Y-66040000D02*
X200660000Y-66040000D01*
X183699991Y-66490009D02*
X184150000Y-66040000D01*
X183699991Y-80829991D02*
X183699991Y-66490009D01*
X186690000Y-83820000D02*
X183699991Y-80829991D01*
%TO.N,GND*%
X193040000Y-68580000D02*
X187960000Y-68580000D01*
X204470000Y-80010000D02*
X193040000Y-68580000D01*
X212090000Y-80010000D02*
X204470000Y-80010000D01*
X185420000Y-72120000D02*
X185420000Y-73660000D01*
X187960000Y-69580000D02*
X185420000Y-72120000D01*
X187960000Y-68580000D02*
X187960000Y-69580000D01*
%TO.N,Net-(J3-Pad1)*%
X213715001Y-88544999D02*
X213715001Y-74015001D01*
X212090000Y-90170000D02*
X213715001Y-88544999D01*
X209550000Y-69850000D02*
X208280000Y-69850000D01*
X213715001Y-74015001D02*
X209550000Y-69850000D01*
%TO.N,Net-(K1-Pad6)*%
X185420000Y-68580000D02*
X184150000Y-69850000D01*
X184150000Y-69850000D02*
X184150000Y-80010000D01*
X184249002Y-80010000D02*
X186789002Y-82550000D01*
X184150000Y-80010000D02*
X184249002Y-80010000D01*
X187960000Y-82550000D02*
X189230000Y-83820000D01*
X186789002Y-82550000D02*
X187960000Y-82550000D01*
%TO.N,Net-(Q1-Pad2)*%
X195580000Y-78010000D02*
X195760000Y-78190000D01*
X195580000Y-73660000D02*
X195580000Y-78010000D01*
%TD*%
M02*
