M48
INCH,TZ
T1C0.0295
T2C0.0299
T3C0.0315
T4C0.0394
T5C0.0512
%
G90
G05
T1
X73000Y-27000
X73500Y-27000
X74000Y-27000
T2
X73500Y-33000
X73500Y-36000
X74500Y-33000
X74500Y-36000
X78500Y-33000
X78500Y-36000
X79500Y-33000
X79500Y-36000
T3
X73000Y-29000
X73071Y-30783
X77000Y-29000
X77071Y-30783
T4
X70000Y-30000
X70000Y-32000
X71000Y-30000
X71000Y-32000
X79500Y-26500
X79500Y-27500
X79500Y-28500
X82000Y-26500
X82000Y-27500
X82000Y-28500
T5
X83500Y-31500
X83500Y-33500
X83500Y-35500
T0
M30
